<svg width="20" height="18" viewBox="0 0 20 18" fill="none" xmlns="http://www.w3.org/2000/svg">
<path d="M18.35 3.70997C18.3497 4.50015 18.0961 5.26943 17.6263 5.9048C17.1565 6.54017 16.4954 7.00814 15.74 7.23998C15.913 6.6762 16.0006 6.08971 16 5.49998C16.0001 4.46122 15.73 3.44029 15.2163 2.53742C14.7026 1.63455 13.963 0.880784 13.07 0.350109C13.5651 0.120287 14.1042 0.000826324 14.65 0C15.6325 0.00171428 16.5741 0.393454 17.2679 1.08912C17.9617 1.78479 18.3509 2.72747 18.35 3.70997ZM17.6 8.30006C17.1799 8.18236 16.7303 8.23632 16.35 8.45006C15.9224 8.68714 15.4478 8.82709 14.96 8.85994C14.7581 9.16775 14.5234 9.45279 14.26 9.71006C15.2047 10.0209 16.0458 10.5855 16.6913 11.3421C17.3368 12.0987 17.7618 13.0182 17.92 14.0001H18.61C18.8316 14.0032 19.0499 13.9463 19.2418 13.8354C19.4337 13.7245 19.5921 13.5638 19.7 13.3702C19.8986 12.9978 20.0016 12.582 20 12.16V11.45C20 9.95995 19.01 8.66991 17.6 8.30006ZM6.93002 0.350109C6.43494 0.120287 5.89582 0.000826324 5.35 0C4.46401 0.000615042 3.60761 0.318928 2.93631 0.897143C2.265 1.47536 1.8233 2.27513 1.69141 3.15125C1.55951 4.02737 1.74617 4.92175 2.21748 5.67198C2.6888 6.4222 3.41352 6.97855 4.26007 7.23998C4.08706 6.67621 3.99941 6.08971 4 5.49998C3.99995 4.46122 4.27002 3.44029 4.78371 2.53742C5.29739 1.63455 6.03703 0.880784 6.93002 0.350109ZM5.74 9.70997C5.47665 9.4527 5.24194 9.16766 5.03997 8.85984C4.55217 8.82699 4.07761 8.68705 3.65003 8.44997C3.26973 8.23622 2.8201 8.18227 2.40002 8.29997C0.989971 8.66981 1.84536e-05 9.95986 1.84536e-05 11.45V12.1599C-0.00158625 12.5819 0.10149 12.9977 0.300019 13.3701C0.406831 13.5625 0.563507 13.7225 0.753568 13.8333C0.943628 13.9442 1.16005 14.0018 1.38007 14H2.08C2.23819 13.0181 2.66325 12.0986 3.30874 11.342C3.95423 10.5854 4.7953 10.0208 5.74 9.70997ZM13.58 11.07C13.4066 11.0265 13.2288 11.003 13.05 11C12.7032 11.0007 12.3624 11.0903 12.06 11.26C11.4291 11.6077 10.7204 11.79 10 11.79C9.27961 11.79 8.57093 11.6077 7.93999 11.26C7.63761 11.0903 7.29681 11.0007 6.95003 11C6.77125 11.003 6.59339 11.0265 6.41997 11.07C5.57957 11.2979 4.83785 11.7968 4.30989 12.4892C3.78194 13.1817 3.49725 14.029 3.49999 14.8997V15.7698C3.50032 16.2796 3.62748 16.7814 3.87002 17.2298C4.12 17.7097 4.62002 17.9998 5.17999 17.9998H14.82C15.38 17.9998 15.88 17.7097 16.13 17.2298C16.3725 16.7814 16.4997 16.2796 16.5 15.7698V14.8999C16.5028 14.0291 16.2181 13.1818 15.6902 12.4893C15.1622 11.7968 14.4205 11.2979 13.58 11.07ZM14.5 5.49998C14.5 4.60997 14.2361 3.73994 13.7416 2.99992C13.2471 2.2599 12.5443 1.68312 11.7221 1.34253C10.8998 1.00193 9.99501 0.912817 9.1221 1.08645C8.24918 1.26008 7.44736 1.68867 6.81802 2.318C6.18869 2.94734 5.7601 3.74916 5.58647 4.62208C5.41284 5.49499 5.50195 6.39979 5.84255 7.22206C6.18314 8.04433 6.75992 8.74713 7.49994 9.2416C8.23996 9.73606 9.10999 9.99998 10 9.99998C11.1935 9.99998 12.3381 9.52588 13.182 8.68196C14.0259 7.83805 14.5 6.69346 14.5 5.49998Z" fill="white"/>
</svg>
